<?xml version="1.0" standalone="no"?>
<!DOCTYPE svg PUBLIC "-//W3C//DTD SVG 20010904//EN"
 "http://www.w3.org/TR/2001/REC-SVG-20010904/DTD/svg10.dtd">
<svg version="1.0" xmlns="http://www.w3.org/2000/svg"
 width="494.000000pt" height="148.000000pt" viewBox="0 0 494.000000 148.000000"
 preserveAspectRatio="xMidYMid meet">

<g transform="translate(0.000000,148.000000) scale(0.100000,-0.100000)"
fill="#2563EB" stroke="none">
<path d="M653 1126 c-91 -29 -192 -109 -237 -188 -14 -24 -4 -16 37 28 124
134 312 183 491 129 67 -20 68 -13 4 16 -66 28 -228 37 -295 15z"/>
<path d="M748 1079 c-31 -4 -84 -19 -118 -33 -110 -45 -172 -101 -221 -201
-24 -49 -29 -73 -29 -131 0 -77 17 -148 45 -185 14 -20 16 -20 10 -4 -4 11 -9
52 -11 90 l-5 70 19 -55 c18 -52 61 -142 62 -129 0 4 -7 26 -15 49 -8 23 -15
57 -15 74 0 28 3 25 30 -31 38 -77 126 -161 214 -203 86 -40 90 -38 18 10 -72
48 -113 93 -147 160 -33 66 -32 72 5 21 63 -87 194 -142 334 -140 125 2 159
14 56 20 -61 4 -100 12 -133 28 -26 13 -47 26 -47 30 0 4 28 2 62 -5 63 -13
129 -7 129 11 0 6 -32 13 -71 17 -131 12 -239 90 -276 200 -28 84 -7 140 71
190 27 18 28 19 5 12 -56 -15 -119 -80 -141 -142 -13 -37 -29 -42 -29 -9 1 33
34 99 66 129 16 15 54 41 84 57 64 35 54 40 -24 11 -60 -23 -120 -80 -157
-152 -20 -36 -24 -40 -27 -21 -4 27 16 66 64 121 50 59 103 90 204 123 88 28
85 32 -12 18z"/>
<path d="M3100 740 l0 -180 29 0 c16 0 31 6 33 12 4 10 10 10 32 0 80 -36 169
13 176 98 5 61 -1 83 -32 114 -41 41 -96 53 -140 32 -17 -9 -33 -16 -35 -16
-1 0 -3 27 -3 60 l0 60 -30 0 -30 0 0 -180z m188 1 c49 -62 -4 -137 -83 -117
-27 7 -48 57 -39 93 12 47 92 63 122 24z"/>
<path d="M4090 740 l0 -180 30 0 c26 0 30 3 30 29 0 16 7 35 16 42 14 12 21 8
53 -30 33 -38 40 -42 75 -39 l38 3 -51 64 c-28 35 -51 67 -51 71 0 4 20 30 45
58 25 27 45 53 45 56 0 3 -17 6 -38 6 -34 0 -42 -5 -76 -50 -21 -27 -42 -50
-47 -50 -5 0 -9 45 -9 100 l0 100 -30 0 -30 0 0 -180z"/>
<path d="M1439 820 c-48 -13 -67 -30 -89 -75 -28 -59 -21 -100 25 -145 64 -62
171 -50 215 23 39 63 19 146 -43 179 -34 18 -80 25 -108 18z m84 -78 c22 -19
22 -79 0 -104 -24 -27 -87 -24 -107 4 -55 77 35 161 107 100z"/>
<path d="M2072 819 c-115 -24 -138 -189 -33 -244 55 -28 144 -14 179 28 10 12
7 17 -18 27 -23 10 -34 10 -43 1 -27 -27 -117 -4 -117 30 0 5 45 9 100 9 l100
0 0 38 c-1 75 -83 129 -168 111z m86 -77 c21 -27 14 -32 -53 -32 -36 0 -65 3
-65 8 1 17 19 33 46 41 34 9 54 4 72 -17z"/>
<path d="M2374 816 c-96 -42 -109 -183 -22 -236 36 -22 98 -26 129 -10 13 7
19 7 19 0 0 -5 16 -10 35 -10 l35 0 0 130 0 130 -35 0 c-19 0 -35 -4 -35 -9 0
-6 -16 -3 -35 5 -42 17 -51 17 -91 0z m89 -57 c30 -16 37 -28 37 -68 0 -44
-24 -71 -64 -71 -37 0 -49 7 -65 37 -23 45 -8 89 39 106 23 8 30 8 53 -4z"/>
<path d="M2743 815 c-18 -8 -33 -10 -33 -5 0 6 -16 10 -35 10 l-35 0 0 -130 0
-130 35 0 34 0 3 92 c3 89 4 93 30 108 49 27 62 8 68 -101 l5 -94 33 -3 32 -3
0 106 c0 99 -2 107 -25 130 -13 14 -31 25 -39 25 -8 0 -20 2 -28 5 -7 2 -28
-2 -45 -10z"/>
<path d="M3504 816 c-93 -41 -108 -177 -25 -233 36 -25 98 -31 131 -13 13 7
21 7 25 0 3 -5 19 -10 36 -10 l29 0 0 130 0 130 -35 0 c-19 0 -35 -4 -35 -9 0
-6 -16 -3 -35 5 -42 17 -51 17 -91 0z m114 -74 c21 -27 19 -77 -5 -104 -20
-22 -76 -23 -97 -2 -25 24 -31 64 -15 93 23 41 89 49 117 13z"/>
<path d="M3873 815 c-18 -8 -33 -10 -33 -5 0 6 -16 10 -35 10 l-36 0 3 -127 3
-128 32 -3 32 -3 3 93 c3 89 4 93 30 108 49 27 62 8 68 -101 l5 -94 33 -3 32
-3 0 106 c0 99 -2 107 -25 130 -13 14 -31 25 -39 25 -8 0 -20 2 -28 5 -7 2
-28 -2 -45 -10z"/>
<path d="M1728 804 c-31 -16 -68 -80 -68 -116 0 -37 34 -90 71 -110 19 -10 54
-18 82 -18 41 0 53 5 80 31 30 30 30 32 12 45 -24 18 -40 18 -55 -1 -19 -23
-76 -19 -100 7 -62 67 34 162 102 101 15 -13 22 -14 48 -3 30 12 30 13 13 32
-43 48 -130 63 -185 32z"/>
</g>
</svg>
